Coordinates
version=1
nRows=26
nColumns=24
inDegrees=yes

Units are S.I. units (second, meters, Newtons, ...)
Angles are in degrees.

endheader
time	pelvis_tilt	pelvis_list	pelvis_rotation	pelvis_tx	pelvis_ty	pelvis_tz	hip_flexion_r	hip_adduction_r	hip_rotation_r	knee_angle_r	ankle_angle_r	subtalar_angle_r	mtp_angle_r	hip_flexion_l	hip_adduction_l	hip_rotation_l	knee_angle_l	ankle_angle_l	subtalar_angle_l	mtp_angle_l	lumbar_extension	lumbar_bending	lumbar_rotation
      3.47000000	    -10.92309130	      4.68725302	     -1.06181150	     -2.11069218	     -0.02055144	     -0.71639951	     19.82778235	     -7.59768681	     -4.09161965	    -64.66538797	    -18.01775915	    -18.85457722	     -0.64190403	     27.75353180	      6.32711334	    -11.99165140	    -23.66278916	      2.37785983	     -8.75086008	      4.96084000	      6.68676379	     -5.53666856	      0.76865250
      3.47500000	    -10.99945064	      4.50937784	     -0.83805666	     -2.10558160	     -0.01964616	     -0.71733388	     20.71532246	     -7.46903863	     -4.23605464	    -65.36716511	    -17.32543741	    -19.02159884	     -0.53019029	     27.31968748	      6.35820514	    -11.64432661	    -23.36197797	      2.52160848	     -8.75481973	      5.04186301	      6.72205398	     -5.34664166	      0.38280918
      3.48000000	    -11.05506786	      4.37889254	     -0.69995802	     -2.10047138	     -0.01872013	     -0.71816931	     21.59986181	     -7.35866940	     -4.26469148	    -66.01151085	    -16.55590819	    -19.01733241	     -0.37070833	     26.83977702	      6.39573576	    -11.40261618	    -23.01607902	      2.68054589	     -8.73576239	      5.06507110	      6.75194879	     -5.18843708	      0.11808189
      3.48500000	    -11.10379491	      4.24798326	     -0.55974911	     -2.09535980	     -0.01777750	     -0.71898568	     22.46004751	     -7.24694531	     -4.29862896	    -66.56758310	    -15.79022418	    -18.97564574	     -0.17982746	     26.34329972	      6.43257444	    -11.15186799	    -22.65400792	      2.83171319	     -8.72078471	      5.03525549	      6.77784029	     -5.03039242	     -0.15348988
      3.49000000	    -11.13491453	      4.12000883	     -0.41784899	     -2.09025152	     -0.01680937	     -0.71978557	     23.28381140	     -7.13696324	     -4.33769103	    -67.03516393	    -15.04576537	    -18.92171358	      0.04588155	     25.81490775	      6.47224359	    -10.89782343	    -22.26703180	      2.97746880	     -8.70325956	      4.96842527	      6.78857424	     -4.87500038	     -0.42284646
      3.49500000	    -11.15351095	      3.99847004	     -0.27718010	     -2.08512880	     -0.01582421	     -0.72056706	     24.07342905	     -7.03017287	     -4.37165268	    -67.41291366	    -14.31732364	    -18.84300839	      0.32416871	     25.25888543	      6.51828521	    -10.63741793	    -21.85454182	      3.10682573	     -8.70128073	      4.84937128	      6.79203477	     -4.72781078	     -0.69614626
      3.50000000	    -11.14919618	      3.90004824	     -0.15436978	     -2.08001353	     -0.01482100	     -0.72135757	     24.82640603	     -6.94582668	     -4.38236053	    -67.70128589	    -13.64663246	    -18.77653695	      0.82416803	     24.65803155	      6.59623529	    -10.33362766	    -21.40549720	      3.22248199	     -8.79490993	      4.49221962	      6.77560138	     -4.59368599	     -0.92653418
      3.50500000	    -11.12090607	      3.78867383	      0.00484242	     -2.07485536	     -0.01380843	     -0.72208646	     25.51417922	     -6.85714943	     -4.45731434	    -67.89968295	    -12.96731255	    -18.73790487	      1.09773231	     24.03034704	      6.63879105	    -10.12633894	    -20.96007249	      3.40120909	     -8.66393231	      4.44285264	      6.73899484	     -4.46511274	     -1.22121842
      3.51000000	    -11.06754193	      3.68925949	      0.14102145	     -2.06968523	     -0.01276780	     -0.72279301	     26.15436094	     -6.76751622	     -4.49341747	    -68.00874433	    -12.27422732	    -18.63624075	      1.43585811	     23.35335559	      6.69227412	     -9.89393231	    -20.47114537	      3.52149879	     -8.62492497	      4.34281184	      6.68245473	     -4.33963661	     -1.48055974
      3.51500000	    -10.98273571	      3.60892434	      0.28217324	     -2.06447586	     -0.01169204	     -0.72349443	     26.72788027	     -6.70108593	     -4.52910747	    -68.02139589	    -11.59299597	    -18.53752857	      1.84039458	     22.62225433	      6.76500638	     -9.66998557	    -19.94583348	      3.60867105	     -8.59612827	      4.21148136	      6.59806712	     -4.23664246	     -1.75110965
      3.52000000	    -10.85435712	      3.52663954	      0.39933828	     -2.05919444	     -0.01053906	     -0.72419602	     27.22197034	     -6.62763049	     -4.55450148	    -67.92265190	    -10.99098683	    -18.47060409	      2.37931596	     21.81395572	      6.82917866	     -9.46316781	    -19.37118677	      3.67402802	     -8.58798257	      4.02318440	      6.48889855	     -4.12019881	     -2.01100140
      3.52500000	    -10.75997009	      3.46288230	      0.52949389	     -2.05399947	     -0.00954102	     -0.72484456	     27.75073283	     -6.57780262	     -4.60625213	    -67.78517374	    -10.34295655	    -18.47312100	      2.74675442	     21.06812836	      6.89667355	     -9.27934885	    -18.83972442	      3.80910226	     -8.47764602	      3.96446806	      6.39913043	     -4.03500556	     -2.25032603
      3.53000000	    -10.59444469	      3.38099788	      0.64800008	     -2.04870459	     -0.00837860	     -0.72550421	     28.14245717	     -6.49774838	     -4.63272944	    -67.50570273	     -9.71621286	    -18.41570352	      3.21142750	     20.21063315	      6.94090705	     -9.12536963	    -18.24688467	      3.85731360	     -8.39961822	      3.87000525	      6.24957876	     -3.91908606	     -2.50591397
      3.53500000	    -10.43444732	      3.30922116	      0.76239032	     -2.04341676	     -0.00729512	     -0.72617579	     28.52756009	     -6.43851453	     -4.67777289	    -67.16286553	     -9.11686569	    -18.42137228	      3.63379423	     19.35796366	      6.98981329	     -8.97802076	    -17.65265466	      3.94777274	     -8.29334666	      3.82424120	      6.10804753	     -3.81018903	     -2.74507635
      3.54000000	    -10.26812749	      3.23003496	      0.86567524	     -2.03811737	     -0.00622067	     -0.72682716	     28.87836771	     -6.36755648	     -4.72188532	    -66.73111912	     -8.53725363	    -18.44478941	      4.01006258	     18.49423975	      7.01993089	     -8.84891454	    -17.05044805	      4.03071366	     -8.17273477	      3.80668558	      5.96398829	     -3.68991819	     -2.97295764
      3.54500000	    -10.11524371	      3.15044068	      0.96509128	     -2.03282973	     -0.00522348	     -0.72747109	     29.22694735	     -6.30204652	     -4.78092110	    -66.23487573	     -7.95961532	    -18.48331238	      4.28813134	     17.64674505	      7.04352910	     -8.71877025	    -16.45044958	      4.14089520	     -8.03128960	      3.82245504	      5.83584607	     -3.56956764	     -3.19108573
      3.55000000	     -9.93411167	      3.05547918	      1.06422804	     -2.02753993	     -0.00417535	     -0.72810747	     29.50292311	     -6.21468200	     -4.83735698	    -65.62979270	     -7.40567415	    -18.54285793	      4.52405921	     16.77021094	      7.04195491	     -8.62766325	    -15.84765885	      4.19581557	     -7.88045710	      3.84084373	      5.67603755	     -3.42451793	     -3.42950035
      3.55500000	     -9.77670483	      2.95962442	      1.16298504	     -2.02228294	     -0.00322258	     -0.72873365	     29.78937143	     -6.13375436	     -4.90717871	    -64.96180662	     -6.86848763	    -18.62077464	      4.67013204	     15.92683916	      7.03420016	     -8.52640953	    -15.25530440	      4.27873776	     -7.71387888	      3.87854526	      5.53935090	     -3.28058735	     -3.65824749
      3.56000000	     -9.62042217	      2.85713714	      1.26088746	     -2.01704916	     -0.00231725	     -0.72933887	     30.05148612	     -6.04925706	     -4.98999972	    -64.21640551	     -6.35070171	    -18.71195546	      4.72507377	     15.09192409	      7.01294278	     -8.43195651	    -14.67197065	      4.36381713	     -7.53752481	      3.92143819	      5.40298827	     -3.13248522	     -3.89256892
      3.56500000	     -9.49485678	      2.75221872	      1.35818102	     -2.01184226	     -0.00151861	     -0.72993355	     30.32913762	     -5.96667554	     -5.07835251	    -63.40799989	     -5.85816745	    -18.81538261	      4.69417726	     14.29969529	      6.98516924	     -8.31595422	    -14.10428836	      4.47778461	     -7.35450210	      3.96617923	      5.29625114	     -2.98055117	     -4.11328565
      3.57000000	     -9.35403953	      2.64306189	      1.46519760	     -2.00666466	     -0.00073382	     -0.73051190	     30.55676476	     -5.88577328	     -5.18699757	    -62.51385243	     -5.39714051	    -18.94713033	      4.56295431	     13.50298339	      6.94691846	     -8.23201583	    -13.55043682	      4.56563998	     -7.15716346	      4.00410657	      5.16850210	     -2.82596207	     -4.36759746
      3.57500000	     -9.23844192	      2.53442044	      1.56945940	     -2.00151079	     -0.00004929	     -0.73106347	     30.79115398	     -5.80711310	     -5.30168492	    -61.55450382	     -4.97374666	    -19.10068158	      4.33316429	     12.74481173	      6.90324027	     -8.15149716	    -13.01313166	      4.66531881	     -6.95819323	      4.04349585	      5.06437500	     -2.67303094	     -4.61668008
      3.58000000	     -9.14134590	      2.43585865	      1.67553860	     -1.99637734	      0.00053961	     -0.73162289	     31.02452035	     -5.74772369	     -5.42705849	    -60.53192771	     -4.59221823	    -19.27835078	      4.00924166	     12.01991291	      6.86767893	     -8.07939837	    -12.49771936	      4.77252938	     -6.75343346	      4.08263651	      4.97962687	     -2.52376463	     -4.87624848
      3.58500000	     -9.02274300	      2.35880951	      1.78379383	     -1.99128144	      0.00108578	     -0.73212322	     31.21098636	     -5.71296881	     -5.57505548	    -59.45208780	     -4.19668012	    -19.46388337	      3.36419792	     11.28543728	      6.84430376	     -8.08957606	    -11.99434065	      4.85169274	     -6.52130582	      4.13630069	      4.85853637	     -2.41213525	     -5.12643024
      3.59000000	     -9.02315836	      2.25465555	      1.88599972	     -1.98616983	      0.00140527	     -0.73266176	     31.50799373	     -5.65120056	     -5.69754160	    -58.30343617	     -3.92549673	    -19.65838259	      2.95406318	     10.68982502	      6.79902613	     -7.97872281	    -11.52011606	      5.00469864	     -6.34376483	      4.18003048	      4.88011563	     -2.25865487	     -5.38335794
      3.59500000	     -8.90423461	      2.22110990	      1.94140044	     -1.98106752	      0.00176691	     -0.73307586	     31.66241943	     -5.63119043	     -5.78844391	    -57.13610066	     -3.49079304	    -19.72244425	      1.64693612	      9.96552082	      6.80313073	     -8.06107380	    -11.04036614	      5.12250807	     -6.07063345	      4.27606301	      4.76350482	     -2.17431989	     -5.61245914
